<svg xmlns="http://www.w3.org/2000/svg" width="100" height="100" viewBox="0 0 512 512">
  <path fill="#EA4335" d="M502.3 190.8l-198.5 137.6L256 370.1l-47.8-41.8L9.7 190.8C3.5 185.4 0 177.8 0 169.6V80c0-26.5 21.5-48 48-48h416c26.5 0 48 21.5 48 48v89.6c0 8.2-3.5 15.8-9.7 21.2z"/>
  <path fill="#34A853" d="M256 320.1l240 171.4c9.6 6.9 16 18.3 16 30.5V432c0-8.2-3.5-15.8-9.7-21.2L256 320.1z"/>
  <path fill="#FBBC04" d="M16 432v89.6c0 12.2 6.4 23.6 16 30.5l240-171.4L16 410.8C9.5 416.2 6 423.8 6 432z"/>
  <path fill="#4285F4" d="M464 32H48C21.5 32 0 53.5 0 80v89.6c0 8.2 3.5 15.8 9.7 21.2l198.5 137.6L256 370.1l47.8-41.8 198.5-137.6c6.2-5.4 9.7-13 9.7-21.2V80c0-26.5-21.5-48-48-48z"/>
</svg>
