<svg xmlns="http://www.w3.org/2000/svg" width="100" height="100" viewBox="0 0 1024 1024">
  <path fill="#181717" d="M512 76C264.6 76 64 276.6 64 524c0 197.6 128.2 365.2 305.8 424 22.4 4.4 30.6-9.6 30.6-21.2 0-10.4-.4-38-0.6-74.6-124.4 27-150.8-60.2-150.8-60.2-20.4-52-49.8-65.8-49.8-65.8-40.8-28 3.2-27.4 3.2-27.4 45.2 3.2 69 46.4 69 46.4 40.2 68.8 105.4 49 131.2 37.4 4-29.2 15.8-49.2 28.8-60.6-99.2-11.2-203.6-49.8-203.6-221.4 0-48.8 17.4-88.8 45.6-120.2-4.6-11.2-19.8-56.4 4.4-117.6 0 0 37.2-11.8 121.8 45.8 35.4-9.8 73.2-14.6 110.8-14.8 37.6.2 75.4 5 110.8 14.8 84.6-57.6 121.6-45.8 121.6-45.8 24.4 61.2 9.2 106.4 4.6 117.6 28.4 31.4 45.4 71.4 45.4 120.2 0 171.8-104.6 210-204.2 221 16.2 14 30.6 41.8 30.6 84.4 0 60.8-.6 109.8-.6 124.8 0 11.8 8 25.8 30.8 21.2C831.8 889.2 960 721.6 960 524c0-247.4-200.6-448-448-448z"/>
</svg>
