<svg xmlns="http://www.w3.org/2000/svg" viewBox="0 0 551.034 551.034" width="100" height="100">
  <linearGradient id="IG-gradient" x1="0%" y1="100%" x2="100%" y2="0%">
    <stop offset="0%" stop-color="#feda75"/>
    <stop offset="25%" stop-color="#fa7e1e"/>
    <stop offset="50%" stop-color="#d62976"/>
    <stop offset="75%" stop-color="#962fbf"/>
    <stop offset="100%" stop-color="#4f5bd5"/>
  </linearGradient>
  <path fill="url(#IG-gradient)" d="M387.166,0H163.867C73.346,0,0,73.346,0,163.867v223.299c0,90.521,73.346,163.867,163.867,163.867h223.299
    c90.521,0,163.867-73.346,163.867-163.867V163.867C551.034,73.346,477.688,0,387.166,0z M495.034,387.166
    c0,59.514-48.354,107.867-107.867,107.867H163.867c-59.514,0-107.867-48.354-107.867-107.867V163.867
    c0-59.514,48.354-107.867,107.867-107.867h223.299c59.514,0,107.867,48.354,107.867,107.867V387.166z"/>
  <path fill="url(#IG-gradient)" d="M275.517,133.188c-78.464,0-142.329,63.865-142.329,142.329s63.865,142.329,142.329,142.329
    s142.329-63.865,142.329-142.329S353.981,133.188,275.517,133.188z M275.517,374.847
    c-54.884,0-99.329-44.445-99.329-99.329s44.445-99.329,99.329-99.329s99.329,44.445,99.329,99.329
    S330.401,374.847,275.517,374.847z"/>
  <circle fill="url(#IG-gradient)" cx="418.31" cy="134.07" r="34.15"/>
</svg>
