<svg xmlns="http://www.w3.org/2000/svg" viewBox="0 0 256 256" width="100" height="100">
  <defs>
    <linearGradient id="whatsapp-gradient" x1="0" y1="0" x2="1" y2="1">
      <stop offset="0%" stop-color="#43d854"/>
      <stop offset="100%" stop-color="#21b355"/>
    </linearGradient>
  </defs>
  <circle cx="128" cy="128" r="128" fill="url(#whatsapp-gradient)"/>
  <path fill="#ffffff" d="M128.1 47.1c-44.4 0-80.5 36.1-80.5 80.5 0 14.2 3.7 27.9 10.7 40l-11.4 41.6 42.6-11.2c11.6 6.3 24.7 9.6 38 9.6 44.4 0 80.5-36.1 80.5-80.5s-36.1-80.5-80.5-80.5zm44.6 108.2c-2.1 5.8-10.9 10.8-15.1 11.5-3.8.6-8.7.9-14-.9-3.2-1.1-7.3-2.4-12.6-4.8-22.1-9.5-36.5-31.7-37.6-33.1-1.1-1.5-8.9-11.9-8.9-22.6s5.6-16.1 7.6-18.2c2-2.1 4.4-2.6 5.8-2.6s2.9.1 4.2.1c1.3 0 3.1-.5 4.8 3.6 1.8 4.2 6.1 14.6 6.6 15.6.5 1 .8 2.3.2 3.6-.6 1.3-.9 2.1-1.8 3.3s-1.9 2.5-2.7 3.4c-.9.9-1.8 2-0.8 3.9 1 2 4.4 7.2 9.4 11.6 6.4 5.6 11.9 7.4 13.8 8.2 1.8.8 2.9.7 4-.4 1.1-1.2 4.6-5.3 5.9-7.2 1.3-2 2.5-1.6 4.2-.9 1.8.6 11.3 5.3 13.2 6.2 1.9.9 3.2 1.3 3.6 2s.5 5.7-1.6 11.5z"/>
</svg>
